<svg width="38" height="42" viewBox="0 0 38 42" fill="none"
  xmlns="http://www.w3.org/2000/svg">
  <path d="M8.19004 20.5144C10.1831 21.0935 13.1932 22.4298 15.6144 24.5338H29.8434L37 38.7363V41V32.4771L21.4815 1H19.548L27.6444 18.8081H14.0564C11.5937 20.1179 10.2322 20.5279 8.19004 20.5144Z" fill="#15E1D5"/>
  <path d="M15.6144 24.5338C17.8827 26.505 19.6341 29.1499 19.548 32.4771C19.3698 39.3556 10.1944 40.9248 5.66605 40.9248L1 40.9605V0.999993L2.91876 1C7.37382 1.67669 17.2492 6.80783 17.2492 12.7293C17.2492 15.4568 16.1594 17.6895 14.0564 18.8081M15.6144 24.5338C13.1932 22.4298 10.1831 21.0935 8.19004 20.5144C10.2322 20.5279 11.5937 20.1179 14.0564 18.8081M15.6144 24.5338H29.8434L37 38.7363V41V32.4771L21.4815 1H19.548L27.6444 18.8081H14.0564" stroke="#15E1D5"/>
  <rect x="1" y="1" width="3" height="40" fill="#15E1D5"/>
</svg>
