<svg width="278" height="460" viewBox="0 0 278 460" fill="none"
  xmlns="http://www.w3.org/2000/svg">
  <path fill-rule="evenodd" clip-rule="evenodd" d="M86.6793 67.3453C86.4028 70.314 86.1126 73.3674 85.8096 76.4988C81.933 116.563 75.9824 169.236 69.9 220.512C63.9902 270.334 57.9583 318.817 53.589 353.098C44.2684 365.439 36.9455 375.456 32.4171 381.658C25.5847 391.015 19.1072 400.695 13.9709 409.823C8.86465 418.898 4.95309 427.655 3.44769 435.122C1.96331 442.485 2.63666 449.764 8.43283 454.176C13.884 458.325 22.6694 458.886 34.4599 456.55C50.5906 453.355 106.675 437.721 160.546 410.827C187.491 397.376 214.042 381.029 234.787 361.894C255.513 342.777 270.718 320.617 274.376 295.533C277.987 270.777 273.037 251.527 262.729 236.584C253.226 222.807 239.362 212.971 224.167 205.777C223.638 205.582 223.145 205.353 222.694 205.089C221.99 204.766 221.284 204.448 220.576 204.135C216.142 202.179 211.587 200.423 206.981 198.84C207.779 198.319 208.572 197.811 209.36 197.317C210.899 194.219 219.037 189.166 229.488 185.049C235.683 182.609 241.507 180.963 245.898 180.281L246.129 178.909C238.178 177.57 229.329 179.521 220.124 183.576C213.242 186.607 205.986 190.892 198.503 196.129C179.665 190.522 160.702 187.49 146.343 185.195C140.12 184.2 134.763 183.343 130.654 182.475C125.528 181.392 124.243 179.974 123.992 179.417C123.818 179.033 123.626 177.749 125.79 174.698C127.812 171.847 131.227 168.417 135.791 164.427C140.318 160.469 145.784 156.12 151.779 151.417C152.944 150.502 154.129 149.575 155.33 148.635L155.33 148.635C166.416 139.958 178.838 130.235 189.655 120.007C201.584 108.729 211.989 96.4517 216.408 83.8264C220.764 71.3815 221.255 57.9486 218.869 45.9406C216.491 33.9719 211.188 23.1171 203.624 16.0385C195.942 8.84881 185.88 5.57389 174.759 9.25248C163.906 12.8427 152.654 22.8625 141.694 40.7279C130.685 58.675 119.631 87.4972 109.179 121.003C98.7009 154.591 88.743 193.172 79.9945 230.824C76.7112 244.954 73.596 258.964 70.6858 272.54C72.7051 256.001 74.7856 238.751 76.8513 221.336C82.9353 170.047 88.893 117.314 92.777 77.1729C94.7183 57.1099 96.1458 40.1499 96.8101 28.0758C97.1414 22.0524 97.2875 17.1669 97.203 13.6952C97.1612 11.9791 97.0609 10.4776 96.864 9.31347C96.7682 8.74645 96.623 8.09292 96.3711 7.48299C96.3334 7.39174 96.2758 7.25622 96.193 7.09368C95.7105 10.5713 95.1886 14.2171 94.6296 18.0124C94.5805 18.3699 94.528 18.7255 94.4722 19.079C92.3504 33.4145 89.7108 49.8289 86.6793 67.3453ZM38.0706 385.786C41.3151 381.342 45.9844 374.954 51.7868 367.166C51.1556 372.067 50.5763 376.534 50.0568 380.51C48.7856 388.485 47.8877 394.791 47.4084 399.046C47.2619 400.345 47.1668 401.248 47.1279 401.727C47.1186 401.842 47.1077 401.989 47.1032 402.128L47.1031 402.131C47.1015 402.18 47.096 402.35 47.1107 402.552C47.1234 402.691 47.1954 403.108 47.273 403.386C47.6507 404.19 50.1229 405.78 52.2047 405.427C52.9584 404.905 53.6997 403.953 53.8278 403.685C53.8804 403.556 53.9523 403.35 53.9767 403.269C54.0173 403.13 54.0435 403.009 54.0546 402.957C54.0814 402.831 54.1059 402.695 54.1261 402.577C54.2837 401.656 54.6426 399.114 55.1624 395.272C55.6363 391.769 56.2522 387.122 56.9879 381.493C58.2165 373.792 59.7986 364.507 61.6928 353.99C80.0607 329.783 105.385 297.661 132.158 267.907C153.193 244.53 175.021 222.732 194.994 207.391C196.601 206.157 198.193 204.967 199.77 203.823C205.855 205.743 211.899 207.958 217.75 210.539C233.658 217.559 247.715 227.146 256.967 240.559C266.159 253.883 270.835 271.309 267.45 294.523C264.111 317.41 250.138 338.211 230.041 356.749C209.963 375.269 184.047 391.271 157.419 404.565C126.285 420.108 94.3951 431.841 70.1611 439.524C66.2408 441.315 60.9452 443.436 55.0495 445.524C47.9593 448.035 41.5133 449.962 37.1565 450.948C23.6893 455.349 11.2668 453.706 8.46636 446.775C7.71225 444.909 7.72644 442.833 8.39872 440.676C8.4675 439.578 8.64479 438.389 8.93864 437.165C9.60897 434.373 10.7367 432.019 11.9385 430.645C13.7155 425.47 16.5115 419.583 20.0715 413.256C25.0276 404.448 31.3359 395.009 38.0706 385.786ZM126.955 263.225C103.888 288.859 81.9069 316.22 64.4848 338.817C70.1665 308.545 77.8562 270.956 86.8128 232.408C95.5396 194.85 105.453 156.451 115.861 123.087C126.295 89.6407 137.14 61.5392 147.661 44.3882C158.232 27.1555 168.363 18.7414 176.958 15.8983C185.286 13.1434 192.736 15.4356 198.841 21.1495C205.066 26.9746 209.828 36.3602 212.003 47.3049C214.17 58.2101 213.704 70.3634 209.801 81.5139C205.961 92.4839 196.605 103.802 184.846 114.921C174.282 124.91 162.124 134.427 151.001 143.134L151 143.135L150.999 143.135L150.999 143.135L150.988 143.144C149.799 144.075 148.621 144.997 147.458 145.91C141.47 150.608 135.867 155.062 131.183 159.157C126.537 163.219 122.602 167.094 120.08 170.648C117.7 174.004 115.771 178.227 117.613 182.301C119.378 186.203 123.863 188.195 129.207 189.324C133.778 190.29 139.505 191.207 146.019 192.25L146.02 192.25L146.02 192.251C158.986 194.327 175.072 196.903 191.365 201.354L191.076 201.575L190.961 201.663L190.73 201.84C170.258 217.563 148.099 239.727 126.955 263.225Z" fill="#15E1D5"/>
  <path d="M86.6793 67.3453L84.7086 67.0043L84.6952 67.0816L84.688 67.1598L86.6793 67.3453ZM85.8096 76.4988L83.8189 76.3062L83.8189 76.3062L85.8096 76.4988ZM69.9 220.512L67.914 220.276L67.914 220.276L69.9 220.512ZM53.589 353.098L55.185 354.303L55.5057 353.878L55.5729 353.351L53.589 353.098ZM32.4171 381.658L30.8019 380.478L30.8019 380.478L32.4171 381.658ZM13.9709 409.823L15.7139 410.804L15.7139 410.804L13.9709 409.823ZM3.44769 435.122L1.48714 434.727L1.48714 434.727L3.44769 435.122ZM8.43283 454.176L7.22148 455.767L7.22148 455.767L8.43283 454.176ZM34.4599 456.55L34.8485 458.512L34.8485 458.512L34.4599 456.55ZM160.546 410.827L159.653 409.038L159.653 409.038L160.546 410.827ZM234.787 361.894L236.143 363.364L236.143 363.364L234.787 361.894ZM274.376 295.533L272.397 295.245L274.376 295.533ZM262.729 236.584L264.375 235.448L264.375 235.448L262.729 236.584ZM224.167 205.777L225.023 203.969L224.942 203.931L224.857 203.9L224.167 205.777ZM222.694 205.089L223.702 203.362L223.618 203.313L223.529 203.272L222.694 205.089ZM220.576 204.135L221.383 202.305L221.383 202.305L220.576 204.135ZM206.981 198.84L205.887 197.167L202.466 199.404L206.332 200.732L206.981 198.84ZM209.36 197.317L210.423 199.011L210.9 198.711L211.151 198.206L209.36 197.317ZM229.488 185.049L228.755 183.188L228.755 183.188L229.488 185.049ZM245.898 180.281L246.205 182.257L247.631 182.036L247.87 180.613L245.898 180.281ZM246.129 178.909L248.101 179.241L248.434 177.269L246.461 176.937L246.129 178.909ZM220.124 183.576L219.318 181.745L219.318 181.745L220.124 183.576ZM198.503 196.129L197.933 198.046L198.859 198.321L199.65 197.767L198.503 196.129ZM146.343 185.195L146.027 187.17L146.027 187.17L146.343 185.195ZM130.654 182.475L130.241 184.432L130.241 184.432L130.654 182.475ZM123.992 179.417L122.169 180.241L122.169 180.241L123.992 179.417ZM125.79 174.698L124.159 173.541L124.159 173.541L125.79 174.698ZM135.791 164.427L134.475 162.921L134.475 162.921L135.791 164.427ZM151.779 151.417L153.013 152.99L153.013 152.99L151.779 151.417ZM155.33 148.635L156.562 150.21L156.577 150.199L156.591 150.188L155.33 148.635ZM155.33 148.635L154.098 147.06L154.083 147.071L154.069 147.083L155.33 148.635ZM189.655 120.007L188.281 118.554L188.281 118.554L189.655 120.007ZM216.408 83.8264L214.52 83.1657L214.52 83.1657L216.408 83.8264ZM218.869 45.9406L216.907 46.3304L216.907 46.3304L218.869 45.9406ZM203.624 16.0385L202.258 17.4988L202.258 17.4988L203.624 16.0385ZM174.759 9.25248L175.388 11.1513L175.388 11.1513L174.759 9.25248ZM141.694 40.7279L139.99 39.6821L139.99 39.6821L141.694 40.7279ZM109.179 121.003L107.269 120.407L107.269 120.407L109.179 121.003ZM79.9945 230.824L78.0464 230.371L78.0464 230.371L79.9945 230.824ZM70.6858 272.54L68.7005 272.297L72.6413 272.959L70.6858 272.54ZM76.8513 221.336L74.8652 221.101L76.8513 221.336ZM92.777 77.1729L90.7863 76.9803L90.7863 76.9803L92.777 77.1729ZM96.8101 28.0758L94.8131 27.966L94.8131 27.966L96.8101 28.0758ZM97.203 13.6952L99.2024 13.6465L99.2024 13.6465L97.203 13.6952ZM96.864 9.31347L94.892 9.64692L94.892 9.64693L96.864 9.31347ZM96.3711 7.48299L94.5226 8.24653L94.5226 8.24657L96.3711 7.48299ZM96.193 7.09368L97.9748 6.18538L95.086 0.518388L94.212 6.81885L96.193 7.09368ZM94.6296 18.0124L92.651 17.721L92.6496 17.7305L92.6483 17.74L94.6296 18.0124ZM94.4722 19.079L92.4966 18.7672L92.4951 18.7767L92.4937 18.7862L94.4722 19.079ZM51.7868 367.166L53.7705 367.422L54.7461 359.847L50.1831 365.971L51.7868 367.166ZM38.0706 385.786L39.6858 386.965L39.6858 386.965L38.0706 385.786ZM50.0568 380.51L52.0318 380.825L52.0362 380.797L52.0399 380.769L50.0568 380.51ZM47.4084 399.046L45.4209 398.822L45.4209 398.822L47.4084 399.046ZM47.1279 401.727L49.1213 401.889L49.1213 401.889L47.1279 401.727ZM47.1032 402.128L45.1042 402.063L45.1042 402.065L47.1032 402.128ZM47.1031 402.131L49.102 402.196L49.1021 402.194L47.1031 402.131ZM47.1107 402.552L45.1161 402.698L45.1174 402.716L45.1191 402.734L47.1107 402.552ZM47.273 403.386L45.3465 403.924L45.3915 404.085L45.4627 404.236L47.273 403.386ZM52.2047 405.427L52.5394 407.398L52.9771 407.324L53.3423 407.072L52.2047 405.427ZM53.8278 403.685L55.632 404.548L55.6579 404.494L55.6805 404.438L53.8278 403.685ZM53.9767 403.269L55.8911 403.848L55.894 403.838L55.8968 403.829L53.9767 403.269ZM54.0546 402.957L56.0107 403.374L56.0107 403.374L54.0546 402.957ZM54.1261 402.577L56.0974 402.914L56.0974 402.914L54.1261 402.577ZM55.1624 395.272L57.1443 395.54L57.1443 395.54L55.1624 395.272ZM56.9879 381.493L55.0129 381.177L55.0084 381.205L55.0048 381.233L56.9879 381.493ZM61.6928 353.99L60.0995 352.782L59.8095 353.164L59.7245 353.636L61.6928 353.99ZM132.158 267.907L130.672 266.569L130.672 266.569L132.158 267.907ZM194.994 207.391L196.212 208.977L196.212 208.977L194.994 207.391ZM199.77 203.823L200.371 201.915L199.41 201.612L198.595 202.204L199.77 203.823ZM217.75 210.539L218.557 208.71L218.557 208.71L217.75 210.539ZM256.967 240.559L258.613 239.423L258.613 239.423L256.967 240.559ZM267.45 294.523L269.429 294.812L267.45 294.523ZM230.041 356.749L228.685 355.279L228.685 355.279L230.041 356.749ZM157.419 404.565L158.313 406.354L158.313 406.354L157.419 404.565ZM70.1611 439.524L69.5566 437.617L69.4405 437.654L69.3298 437.705L70.1611 439.524ZM55.0495 445.524L54.3819 443.639L54.3819 443.639L55.0495 445.524ZM37.1565 450.948L36.7153 448.997L36.6241 449.018L36.5352 449.047L37.1565 450.948ZM8.46636 446.775L10.3207 446.026L10.3207 446.026L8.46636 446.775ZM8.39872 440.676L10.3081 441.271L10.3798 441.041L10.3948 440.801L8.39872 440.676ZM8.93864 437.165L6.99391 436.698L6.99391 436.698L8.93864 437.165ZM11.9385 430.645L13.4439 431.962L13.7025 431.666L13.8301 431.295L11.9385 430.645ZM20.0715 413.256L21.8145 414.237L21.8145 414.237L20.0715 413.256ZM64.4848 338.817L62.5191 338.448L66.0687 340.038L64.4848 338.817ZM126.955 263.225L125.468 261.887L125.468 261.887L126.955 263.225ZM86.8128 232.408L84.8647 231.955L86.8128 232.408ZM115.861 123.087L117.77 123.683L117.77 123.683L115.861 123.087ZM147.661 44.3882L145.956 43.3424L145.956 43.3424L147.661 44.3882ZM176.958 15.8983L176.33 13.9995L176.33 13.9995L176.958 15.8983ZM198.841 21.1495L200.208 19.6893L200.208 19.6892L198.841 21.1495ZM212.003 47.3049L210.042 47.6947L210.042 47.6947L212.003 47.3049ZM209.801 81.5139L207.913 80.8532L207.913 80.8532L209.801 81.5139ZM184.846 114.921L186.22 116.374L186.22 116.374L184.846 114.921ZM151.001 143.134L149.768 141.559L149.76 141.566L149.751 141.572L151.001 143.134ZM151 143.135L152.109 144.799L152.181 144.751L152.249 144.697L151 143.135ZM150.999 143.135L149.89 141.471L149.801 141.53L149.719 141.599L150.999 143.135ZM150.999 143.135L152.234 144.708L152.257 144.69L152.279 144.672L150.999 143.135ZM150.988 143.144L152.221 144.719L152.224 144.717L150.988 143.144ZM147.458 145.91L148.692 147.483L148.692 147.483L147.458 145.91ZM131.183 159.157L129.867 157.651L129.867 157.651L131.183 159.157ZM120.08 170.648L118.449 169.491L118.449 169.491L120.08 170.648ZM117.613 182.301L119.436 181.477L119.436 181.477L117.613 182.301ZM129.207 189.324L128.794 191.281L128.794 191.281L129.207 189.324ZM146.019 192.25L146.367 190.281L146.351 190.278L146.335 190.276L146.019 192.25ZM146.02 192.25L145.672 194.22L145.705 194.226L145.737 194.23L146.02 192.25ZM146.02 192.251L146.337 190.276L146.32 190.273L146.303 190.271L146.02 192.251ZM191.365 201.354L192.579 202.944L195.79 200.49L191.892 199.425L191.365 201.354ZM191.076 201.575L189.862 199.985L189.86 199.987L191.076 201.575ZM190.961 201.663L189.745 200.075L189.744 200.076L190.961 201.663ZM190.73 201.84L189.513 200.253L189.512 200.254L190.73 201.84ZM84.688 67.1598C84.4116 70.126 84.1217 73.1769 83.8189 76.3062L87.8003 76.6914C88.1035 73.5578 88.3939 70.5021 88.6707 67.5308L84.688 67.1598ZM83.8189 76.3062C79.9444 116.349 73.9959 169.004 67.914 220.276L71.8861 220.747C77.9689 169.467 83.9215 116.778 87.8003 76.6914L83.8189 76.3062ZM67.914 220.276C62.0049 270.092 55.9738 318.569 51.605 352.845L55.5729 353.351C59.9429 319.065 65.9754 270.576 71.8861 220.747L67.914 220.276ZM51.993 351.892C42.6625 364.247 35.332 374.274 30.8019 380.478L34.0324 382.837C38.5591 376.638 45.8744 366.632 55.185 354.303L51.993 351.892ZM30.8019 380.478C23.9416 389.874 17.4157 399.623 12.2279 408.843L15.7139 410.804C20.7987 401.767 27.2279 392.157 34.0324 382.837L30.8019 380.478ZM12.2279 408.843C7.08723 417.979 3.05459 426.952 1.48714 434.727L5.40824 435.517C6.85159 428.358 10.6421 419.818 15.7139 410.804L12.2279 408.843ZM1.48714 434.727C-0.0453826 442.328 0.488358 450.642 7.22148 455.767L9.64419 452.584C4.78497 448.885 3.97201 442.641 5.40824 435.517L1.48714 434.727ZM7.22148 455.767C13.4078 460.476 22.9716 460.865 34.8485 458.512L34.0712 454.588C22.3671 456.907 14.3601 456.174 9.64419 452.584L7.22148 455.767ZM34.8485 458.512C51.1426 455.284 107.398 439.596 161.439 412.617L159.653 409.038C105.952 435.847 50.0387 451.425 34.0712 454.588L34.8485 458.512ZM161.439 412.617C188.475 399.12 215.208 382.675 236.143 363.364L233.431 360.424C212.877 379.383 186.507 395.632 159.653 409.038L161.439 412.617ZM236.143 363.364C257.048 344.081 272.605 321.533 276.355 295.822L272.397 295.245C268.83 319.7 253.977 341.472 233.431 360.424L236.143 363.364ZM276.355 295.822C280.03 270.625 275.003 250.854 264.375 235.448L261.083 237.72C271.072 252.2 275.944 270.929 272.397 295.245L276.355 295.822ZM264.375 235.448C254.607 221.288 240.414 211.256 225.023 203.969L223.311 207.584C238.31 214.686 251.844 224.326 261.083 237.72L264.375 235.448ZM224.857 203.9C224.428 203.742 224.043 203.561 223.702 203.362L221.685 206.816C222.248 207.145 222.848 207.423 223.477 207.654L224.857 203.9ZM223.529 203.272C222.816 202.944 222.101 202.622 221.383 202.305L219.768 205.965C220.468 206.273 221.164 206.587 221.858 206.906L223.529 203.272ZM221.383 202.305C216.892 200.323 212.283 198.547 207.631 196.949L206.332 200.732C210.891 202.299 215.393 204.034 219.769 205.965L221.383 202.305ZM208.076 200.514C208.864 199.999 209.646 199.498 210.423 199.011L208.297 195.622C207.498 196.124 206.695 196.638 205.887 197.167L208.076 200.514ZM211.151 198.206C211.354 197.798 211.904 197.113 212.981 196.194C214.021 195.308 215.417 194.318 217.127 193.27C220.542 191.177 225.082 188.934 230.221 186.91L228.755 183.188C223.444 185.28 218.688 187.622 215.037 189.86C213.213 190.977 211.633 192.088 210.387 193.15C209.18 194.178 208.135 195.287 207.569 196.427L211.151 198.206ZM230.221 186.91C236.321 184.507 241.999 182.911 246.205 182.257L245.591 178.305C241.014 179.016 235.044 180.711 228.755 183.188L230.221 186.91ZM247.87 180.613L248.101 179.241L244.157 178.577L243.926 179.949L247.87 180.613ZM246.461 176.937C237.969 175.507 228.701 177.612 219.318 181.745L220.93 185.406C229.957 181.43 238.387 179.633 245.797 180.881L246.461 176.937ZM219.318 181.745C212.282 184.845 204.911 189.204 197.357 194.49L199.65 197.767C207.062 192.581 214.202 188.37 220.93 185.406L219.318 181.745ZM199.074 194.212C180.092 188.562 161.006 185.513 146.658 183.22L146.027 187.17C160.397 189.467 179.237 192.481 197.933 198.046L199.074 194.212ZM146.658 183.22C140.417 182.222 135.116 181.374 131.068 180.519L130.241 184.432C134.409 185.313 139.824 186.178 146.027 187.17L146.658 183.22ZM131.068 180.519C128.63 180.004 127.237 179.435 126.477 179.006C125.692 178.564 125.701 178.343 125.814 178.593L122.169 180.241C122.534 181.049 123.312 181.815 124.514 182.492C125.74 183.182 127.553 183.864 130.241 184.432L131.068 180.519ZM125.814 178.593C126.111 179.25 125.333 178.799 127.421 175.856L124.159 173.541C121.919 176.699 121.524 178.815 122.169 180.241L125.814 178.593ZM127.421 175.856C129.301 173.206 132.567 169.903 137.108 165.932L134.475 162.921C129.888 166.932 126.324 170.489 124.159 173.541L127.421 175.856ZM137.108 165.932C141.589 162.014 147.017 157.695 153.013 152.99L150.544 149.843C144.552 154.545 139.046 158.924 134.475 162.921L137.108 165.932ZM153.013 152.99C154.178 152.077 155.362 151.15 156.562 150.21L154.097 147.06C152.897 148 151.711 148.928 150.544 149.843L153.013 152.99ZM156.591 150.188L156.592 150.187L154.069 147.083L154.068 147.083L156.591 150.188ZM156.563 150.21C167.635 141.544 180.133 131.764 191.03 121.46L188.281 118.554C177.544 128.707 165.196 138.373 154.098 147.06L156.563 150.21ZM191.03 121.46C203.007 110.136 213.711 97.5852 218.296 84.4871L214.52 83.1657C210.267 95.3182 200.161 107.321 188.281 118.554L191.03 121.46ZM218.296 84.4871C222.781 71.6724 223.279 57.8738 220.831 45.5508L216.907 46.3304C219.231 58.0234 218.746 71.0907 214.52 83.1657L218.296 84.4871ZM220.831 45.5508C218.394 33.2897 212.938 22.0151 204.991 14.5782L202.258 17.4988C209.439 24.2191 214.587 34.6541 216.907 46.3304L220.831 45.5508ZM204.991 14.5782C196.859 6.96806 186.051 3.41069 174.131 7.35367L175.388 11.1513C185.708 7.7371 195.024 10.7296 202.258 17.4988L204.991 14.5782ZM174.131 7.35367C162.633 11.1574 151.06 21.6362 139.99 39.6821L143.399 41.7737C154.248 24.0889 165.18 14.528 175.388 11.1513L174.131 7.35367ZM139.99 39.6821C128.841 57.8566 117.727 86.8846 107.269 120.407L111.088 121.598C121.535 88.1097 132.529 59.4934 143.399 41.7737L139.99 39.6821ZM107.269 120.407C96.7716 154.059 86.8011 192.692 78.0464 230.371L81.9426 231.276C90.6849 193.651 100.63 155.122 111.088 121.598L107.269 120.407ZM78.0464 230.371C74.7603 244.514 71.6426 258.534 68.7302 272.12L72.6413 272.959C75.5494 259.393 78.6621 245.395 81.9426 231.276L78.0464 230.371ZM72.671 272.782C74.6906 256.242 76.7714 238.989 78.8374 221.572L74.8652 221.101C72.7998 238.513 70.7196 255.761 68.7005 272.297L72.671 272.782ZM78.8374 221.572C84.9218 170.279 90.8816 117.529 94.7677 77.3656L90.7863 76.9803C86.9044 117.1 80.9487 169.815 74.8652 221.101L78.8374 221.572ZM94.7677 77.3656C96.7097 57.2959 98.1404 40.3025 98.807 28.1857L94.8131 27.966C94.1512 39.9973 92.727 56.9239 90.7863 76.9803L94.7677 77.3656ZM98.807 28.1857C99.1392 22.1486 99.2889 17.1995 99.2024 13.6465L95.2036 13.7439C95.2862 17.1343 95.1437 21.9562 94.8131 27.966L98.807 28.1857ZM99.2024 13.6465C99.1599 11.9006 99.0569 10.2863 98.8361 8.98002L94.892 9.64693C95.0648 10.6689 95.1625 12.0575 95.2036 13.7439L99.2024 13.6465ZM98.8361 8.98003C98.7294 8.34936 98.5539 7.52879 98.2196 6.7194L94.5226 8.24657C94.6922 8.65705 94.8069 9.14354 94.892 9.64692L98.8361 8.98003ZM98.2196 6.71944C98.1724 6.60522 98.0919 6.41512 97.9748 6.18538L94.4111 8.00199C94.4597 8.09733 94.4944 8.17826 94.5226 8.24653L98.2196 6.71944ZM94.212 6.81885C93.7303 10.2905 93.2092 13.9307 92.651 17.721L96.6083 18.3038C97.168 14.5034 97.6907 10.8521 98.174 7.36852L94.212 6.81885ZM92.6483 17.74C92.6009 18.0843 92.5504 18.4267 92.4966 18.7672L96.4477 19.3909C96.5056 19.0242 96.56 18.6555 96.611 18.2848L92.6483 17.74ZM92.4937 18.7862C90.3746 33.1036 87.7377 49.5018 84.7086 67.0043L88.65 67.6864C91.6839 50.156 94.3261 33.7254 96.4506 19.3718L92.4937 18.7862ZM50.1831 365.971C44.3747 373.767 39.7008 380.161 36.4553 384.606L39.6858 386.965C42.9293 382.523 47.5941 376.141 53.3906 368.361L50.1831 365.971ZM52.0399 380.769C52.5596 376.792 53.1391 372.324 53.7705 367.422L49.8032 366.911C49.1721 371.811 48.593 376.276 48.0736 380.251L52.0399 380.769ZM49.3958 399.27C49.87 395.061 50.7623 388.789 52.0318 380.825L48.0817 380.195C46.809 388.18 45.9054 394.522 45.4209 398.822L49.3958 399.27ZM49.1213 401.889C49.1573 401.446 49.2488 400.574 49.3958 399.27L45.4209 398.822C45.2751 400.116 45.1763 401.05 45.1345 401.565L49.1213 401.889ZM49.1021 402.193C49.105 402.104 49.1126 401.997 49.1213 401.889L45.1345 401.565C45.1246 401.687 45.1104 401.874 45.1042 402.063L49.1021 402.193ZM49.1021 402.194L49.1022 402.191L45.1042 402.065L45.1041 402.068L49.1021 402.194ZM49.1054 402.406C49.0985 402.312 49.1011 402.226 49.102 402.196L45.1042 402.066C45.1019 402.134 45.0934 402.388 45.1161 402.698L49.1054 402.406ZM49.1994 402.849C49.1825 402.788 49.1574 402.677 49.1334 402.549C49.1222 402.489 49.1132 402.436 49.107 402.396C49.0994 402.347 49.1 402.343 49.1024 402.37L45.1191 402.734C45.1435 403.002 45.239 403.538 45.3465 403.924L49.1994 402.849ZM51.8699 403.455C51.4018 403.534 50.7062 403.401 49.9803 403.045C49.6402 402.878 49.359 402.693 49.1675 402.539C48.9194 402.338 48.9817 402.32 49.0833 402.536L45.4627 404.236C45.753 404.855 46.2661 405.337 46.6528 405.649C47.0961 406.008 47.6339 406.349 48.2193 406.636C49.3443 407.188 50.9257 407.672 52.5394 407.398L51.8699 403.455ZM52.0236 402.822C52.0602 402.746 52.0858 402.709 52.0717 402.731C52.0643 402.742 52.0459 402.77 52.0146 402.812C51.9519 402.898 51.8602 403.013 51.7477 403.141C51.508 403.415 51.2568 403.65 51.067 403.782L53.3423 407.072C53.9062 406.681 54.4025 406.18 54.754 405.78C55.0642 405.427 55.4411 404.947 55.632 404.548L52.0236 402.822ZM52.0623 402.69C52.0648 402.682 52.0631 402.688 52.0549 402.712C52.0478 402.733 52.0385 402.76 52.028 402.79C52.0052 402.854 51.9854 402.906 51.9751 402.932L55.6805 404.438C55.7552 404.255 55.8479 403.991 55.8911 403.848L52.0623 402.69ZM52.0986 402.54C52.0908 402.576 52.0767 402.641 52.0566 402.709L55.8968 403.829C55.958 403.619 55.9962 403.442 56.0107 403.374L52.0986 402.54ZM52.1547 402.239C52.1358 402.35 52.1168 402.454 52.0986 402.54L56.0107 403.374C56.0461 403.208 56.0759 403.039 56.0974 402.914L52.1547 402.239ZM53.1805 395.004C52.6585 398.862 52.305 401.361 52.1547 402.239L56.0974 402.914C56.2624 401.95 56.6267 399.366 57.1443 395.54L53.1805 395.004ZM55.0048 381.233C54.2693 386.861 53.6538 391.505 53.1805 395.004L57.1443 395.54C57.6188 392.033 58.2352 387.383 58.971 381.752L55.0048 381.233ZM59.7245 353.636C57.8284 364.162 56.244 373.462 55.0129 381.177L58.9629 381.808C60.189 374.123 61.7687 364.851 63.6611 354.345L59.7245 353.636ZM130.672 266.569C103.845 296.382 78.4833 328.553 60.0995 352.782L63.2861 355.199C81.638 331.013 106.925 298.94 133.645 269.245L130.672 266.569ZM193.776 205.805C173.66 221.255 151.738 243.158 130.672 266.569L133.645 269.245C154.649 245.903 176.381 224.208 196.212 208.977L193.776 205.805ZM198.595 202.204C197.003 203.359 195.396 204.561 193.776 205.805L196.212 208.977C197.806 207.754 199.384 206.574 200.945 205.441L198.595 202.204ZM218.557 208.71C212.628 206.093 206.514 203.853 200.371 201.915L199.168 205.73C205.195 207.632 211.169 209.822 216.943 212.369L218.557 208.71ZM258.613 239.423C249.077 225.598 234.66 215.815 218.557 208.71L216.943 212.369C232.656 219.303 246.353 228.694 255.321 241.694L258.613 239.423ZM269.429 294.812C272.879 271.157 268.124 253.21 258.613 239.423L255.321 241.694C264.194 254.557 268.792 271.461 265.471 294.234L269.429 294.812ZM231.397 358.219C251.674 339.516 265.999 318.326 269.429 294.812L265.471 294.234C262.224 316.494 248.602 336.907 228.685 355.279L231.397 358.219ZM158.313 406.354C185.031 393.015 211.128 376.915 231.397 358.219L228.685 355.279C208.797 373.623 183.063 389.527 156.526 402.775L158.313 406.354ZM70.7655 441.43C95.0672 433.726 127.059 421.956 158.313 406.354L156.526 402.775C125.51 418.259 93.723 429.956 69.5566 437.617L70.7655 441.43ZM55.7172 447.409C61.6529 445.307 67.0055 443.165 70.9923 441.343L69.3298 437.705C65.4761 439.466 60.2375 441.565 54.3819 443.639L55.7172 447.409ZM37.5977 452.898C42.0591 451.889 48.5859 449.935 55.7172 447.409L54.3819 443.639C47.3328 446.135 40.9674 448.035 36.7153 448.997L37.5977 452.898ZM6.612 447.524C8.40677 451.966 13.1023 454.323 18.5313 455.091C24.0414 455.871 30.8274 455.12 37.7778 452.849L36.5352 449.047C30.0184 451.176 23.8596 451.805 19.0915 451.131C14.2424 450.445 11.3264 448.515 10.3207 446.026L6.612 447.524ZM6.48929 440.081C5.70995 442.582 5.65012 445.143 6.612 447.524L10.3207 446.026C9.77438 444.674 9.74294 443.085 10.3081 441.271L6.48929 440.081ZM6.99391 436.698C6.67458 438.028 6.47902 439.331 6.40263 440.551L10.3948 440.801C10.456 439.824 10.615 438.75 10.8834 437.632L6.99391 436.698ZM10.4331 429.328C8.9492 431.025 7.71074 433.712 6.99391 436.698L10.8834 437.632C11.5072 435.033 12.5242 433.013 13.4439 431.962L10.4331 429.328ZM18.3284 412.275C14.734 418.663 11.877 424.666 10.0469 429.996L13.8301 431.295C15.5541 426.274 18.2891 420.502 21.8145 414.237L18.3284 412.275ZM36.4553 384.606C29.6927 393.868 23.3361 403.376 18.3284 412.275L21.8145 414.237C26.7191 405.52 32.9791 396.151 39.6858 386.965L36.4553 384.606ZM66.0687 340.038C83.4738 317.463 105.421 290.146 128.442 264.562L125.468 261.887C102.355 287.573 80.3399 314.977 62.9009 337.596L66.0687 340.038ZM84.8647 231.955C75.9008 270.534 68.2054 308.151 62.5191 338.448L66.4505 339.186C72.1276 308.938 79.8115 271.377 88.7609 232.86L84.8647 231.955ZM113.952 122.492C103.524 155.919 93.5977 194.37 84.8647 231.955L88.7609 232.86C97.4815 195.329 107.383 156.982 117.77 123.683L113.952 122.492ZM145.956 43.3424C135.296 60.7209 124.391 89.0284 113.952 122.492L117.77 123.683C128.199 90.2531 138.984 62.3575 149.366 45.434L145.956 43.3424ZM176.33 13.9995C167.09 17.056 156.639 25.9287 145.956 43.3424L149.366 45.434C159.826 28.3824 169.636 20.4269 177.586 17.7971L176.33 13.9995ZM200.208 19.6892C193.65 13.5521 185.453 10.9813 176.33 13.9995L177.586 17.7971C185.118 15.3055 191.821 17.319 197.475 22.6098L200.208 19.6892ZM213.965 46.9151C211.732 35.6776 206.815 25.8724 200.208 19.6893L197.475 22.6098C203.317 28.0769 207.925 37.0429 210.042 47.6947L213.965 46.9151ZM211.689 82.1746C215.721 70.6543 216.195 58.1355 213.965 46.9151L210.042 47.6947C212.146 58.2848 211.686 70.0724 207.913 80.8532L211.689 82.1746ZM186.22 116.374C198.027 105.21 207.683 93.6177 211.689 82.1746L207.913 80.8532C204.239 91.35 195.183 102.395 183.472 113.468L186.22 116.374ZM152.234 144.709C163.343 136.013 175.577 126.438 186.22 116.374L183.472 113.468C172.988 123.381 160.905 132.841 149.768 141.559L152.234 144.709ZM152.249 144.697L152.25 144.696L149.751 141.572L149.75 141.573L152.249 144.697ZM152.109 144.799L152.109 144.799L149.89 141.471L149.89 141.471L152.109 144.799ZM152.279 144.672L152.28 144.672L149.719 141.599L149.719 141.599L152.279 144.672ZM152.224 144.717L152.234 144.708L149.764 141.563L149.753 141.571L152.224 144.717ZM148.692 147.483C149.854 146.572 151.031 145.65 152.221 144.719L149.756 141.569C148.566 142.5 147.387 143.423 146.223 144.336L148.692 147.483ZM132.5 160.663C137.139 156.606 142.703 152.183 148.692 147.483L146.223 144.336C140.237 149.033 134.596 153.517 129.867 157.651L132.5 160.663ZM121.712 171.806C124.091 168.452 127.878 164.704 132.5 160.663L129.867 157.651C125.197 161.735 121.113 165.736 118.449 169.491L121.712 171.806ZM119.436 181.477C118.072 178.462 119.388 175.081 121.712 171.806L118.449 169.491C116.013 172.926 113.47 177.993 115.791 183.125L119.436 181.477ZM129.621 187.367C124.336 186.251 120.767 184.422 119.436 181.477L115.791 183.125C117.988 187.984 123.389 190.139 128.794 191.281L129.621 187.367ZM146.335 190.276C139.804 189.229 134.132 188.32 129.621 187.367L128.794 191.281C133.423 192.259 139.206 193.185 145.703 194.225L146.335 190.276ZM146.368 190.281L146.367 190.281L145.672 194.22L145.672 194.22L146.368 190.281ZM146.303 190.271L146.303 190.271L145.737 194.23L145.737 194.23L146.303 190.271ZM191.892 199.425C175.48 194.942 159.293 192.351 146.337 190.276L145.704 194.225C158.68 196.303 174.663 198.865 190.838 203.284L191.892 199.425ZM192.29 203.164L192.579 202.944L190.15 199.765L189.862 199.985L192.29 203.164ZM192.177 203.251L192.292 203.163L189.86 199.987L189.745 200.075L192.177 203.251ZM191.948 203.427L192.179 203.249L189.744 200.076L189.513 200.253L191.948 203.427ZM128.442 264.562C149.555 241.099 171.619 219.04 191.949 203.426L189.512 200.254C168.897 216.086 146.644 238.354 125.468 261.887L128.442 264.562Z" fill="#15E1D5"/>
</svg>
