<svg width="25" height="25" viewBox="0 0 25 25" fill="none"
  xmlns="http://www.w3.org/2000/svg">
  <g clip-path="url(#clip0_3_44)">
    <path d="M12.5 2.18276C15.8398 2.18276 16.2354 2.19697 17.5488 2.25379C18.7695 2.30587 19.4287 2.50473 19.8682 2.67045C20.4492 2.88826 20.8691 3.15341 21.3037 3.57481C21.7432 4.00095 22.0117 4.40341 22.2363 4.96686C22.4072 5.39299 22.6123 6.03693 22.666 7.21591C22.7246 8.49432 22.7393 8.87784 22.7393 12.1117C22.7393 15.3504 22.7246 15.7339 22.666 17.0076C22.6123 18.1913 22.4072 18.8305 22.2363 19.2566C22.0117 19.8201 21.7383 20.2273 21.3037 20.6487C20.8643 21.0748 20.4492 21.3352 19.8682 21.553C19.4287 21.7187 18.7646 21.9176 17.5488 21.9697C16.2305 22.0265 15.835 22.0407 12.5 22.0407C9.16016 22.0407 8.76465 22.0265 7.45117 21.9697C6.23047 21.9176 5.57129 21.7187 5.13184 21.553C4.55078 21.3352 4.13086 21.0701 3.69629 20.6487C3.25684 20.2225 2.98828 19.8201 2.76367 19.2566C2.59277 18.8305 2.3877 18.1866 2.33398 17.0076C2.27539 15.7292 2.26074 15.3456 2.26074 12.1117C2.26074 8.87311 2.27539 8.48958 2.33398 7.21591C2.3877 6.0322 2.59277 5.39299 2.76367 4.96686C2.98828 4.40341 3.26172 3.99621 3.69629 3.57481C4.13574 3.14867 4.55078 2.88826 5.13184 2.67045C5.57129 2.50473 6.23535 2.30587 7.45117 2.25379C8.76465 2.19697 9.16016 2.18276 12.5 2.18276ZM12.5 0C9.10645 0 8.68164 0.0142045 7.34863 0.0710227C6.02051 0.127841 5.10742 0.336174 4.31641 0.63447C3.49121 0.946969 2.79297 1.3589 2.09961 2.03598C1.40137 2.70833 0.976562 3.38542 0.654297 4.18087C0.34668 4.95265 0.131836 5.83333 0.0732422 7.12121C0.0146484 8.41856 0 8.83049 0 12.1212C0 15.4119 0.0146484 15.8239 0.0732422 17.1165C0.131836 18.4044 0.34668 19.2898 0.654297 20.0568C0.976562 20.857 1.40137 21.5341 2.09961 22.2064C2.79297 22.8788 3.49121 23.2955 4.31152 23.6032C5.10742 23.9015 6.01562 24.1098 7.34375 24.1667C8.67676 24.2235 9.10156 24.2377 12.4951 24.2377C15.8887 24.2377 16.3135 24.2235 17.6465 24.1667C18.9746 24.1098 19.8877 23.9015 20.6787 23.6032C21.499 23.2955 22.1973 22.8788 22.8906 22.2064C23.584 21.5341 24.0137 20.857 24.3311 20.0616C24.6387 19.2898 24.8535 18.4091 24.9121 17.1212C24.9707 15.8286 24.9854 15.4167 24.9854 12.1259C24.9854 8.83523 24.9707 8.42329 24.9121 7.13068C24.8535 5.8428 24.6387 4.95739 24.3311 4.19034C24.0234 3.38542 23.5986 2.70833 22.9004 2.03598C22.207 1.36364 21.5088 0.94697 20.6885 0.639204C19.8926 0.340909 18.9844 0.132576 17.6562 0.0757576C16.3184 0.0142045 15.8936 0 12.5 0Z" fill="#15E1D5"/>
    <path d="M12.5 5.89488C8.95508 5.89488 6.0791 8.68371 6.0791 12.1212C6.0791 15.5587 8.95508 18.3475 12.5 18.3475C16.0449 18.3475 18.9209 15.5587 18.9209 12.1212C18.9209 8.68371 16.0449 5.89488 12.5 5.89488ZM12.5 16.16C10.2002 16.16 8.33496 14.3513 8.33496 12.1212C8.33496 9.89109 10.2002 8.08238 12.5 8.08238C14.7998 8.08238 16.665 9.89109 16.665 12.1212C16.665 14.3513 14.7998 16.16 12.5 16.16Z" fill="#15E1D5"/>
    <path d="M20.6738 5.64864C20.6738 6.45356 20 7.10224 19.1748 7.10224C18.3447 7.10224 17.6758 6.44883 17.6758 5.64864C17.6758 4.84371 18.3496 4.19504 19.1748 4.19504C20 4.19504 20.6738 4.84845 20.6738 5.64864Z" fill="#15E1D5"/>
  </g>
  <defs>
    <clipPath id="clip0_3_44">
      <rect width="25" height="24.2424" fill="white"/>
    </clipPath>
  </defs>
</svg>
