<svg width="25" height="25" viewBox="0 0 25 25" fill="none"
  xmlns="http://www.w3.org/2000/svg">
  <g clip-path="url(#clip0_3_60)">
    <path d="M7.86475 22.6563C17.2964 22.6563 22.4565 14.8404 22.4565 8.06448C22.4565 7.84476 22.4517 7.62015 22.4419 7.40042C23.4457 6.67448 24.312 5.77531 25 4.74515C24.0651 5.16109 23.0725 5.43273 22.0562 5.55081C23.1263 4.90932 23.9276 3.90158 24.3115 2.71439C23.3047 3.31104 22.2037 3.73193 21.0557 3.95901C20.2821 3.13709 19.2594 2.59288 18.1455 2.41052C17.0316 2.22816 15.8887 2.41781 14.8935 2.95015C13.8982 3.48249 13.106 4.32786 12.6394 5.35558C12.1728 6.38329 12.0577 7.5361 12.312 8.63577C10.2734 8.53347 8.2791 8.0039 6.45831 7.0814C4.63753 6.15889 3.03093 4.86404 1.74268 3.28079C1.08792 4.40967 0.887559 5.74551 1.18232 7.01681C1.47709 8.2881 2.24486 9.39947 3.32959 10.125C2.51524 10.0992 1.71872 9.87992 1.00586 9.48538V9.54886C1.00513 10.7335 1.41469 11.8819 2.16491 12.7988C2.91513 13.7156 3.95971 14.3444 5.12109 14.5782C4.36672 14.7846 3.57498 14.8146 2.80713 14.666C3.13485 15.6849 3.77247 16.576 4.63101 17.215C5.48955 17.854 6.52617 18.209 7.59619 18.2305C5.77961 19.6574 3.5356 20.4314 1.22559 20.4278C0.815924 20.4271 0.406666 20.402 0 20.3526C2.34673 21.8581 5.07659 22.6577 7.86475 22.6563Z" fill="#15E1D5"/>
  </g>
  <defs>
    <clipPath id="clip0_3_60">
      <rect width="25" height="25" fill="white"/>
    </clipPath>
  </defs>
</svg>
